<svg id="Layer_1" data-name="Layer 1" xmlns="http://www.w3.org/2000/svg" viewBox="0 0 307.06 168.01"><defs><style>.cls-1{fill:#050505;}.cls-2{fill:#0023ff;}</style></defs><title>PayPing_Logo</title><polygon class="cls-1" points="271.28 120.7 251.14 128.54 251.15 131.42 271.28 124 271.28 120.7"/><polygon class="cls-1" points="106.57 42.51 83.57 51.02 83.54 43.97 104.73 36.08 106.57 42.51"/><path class="cls-1" d="M189.67,70.93v8.53c0,4.54-1.1,8-3.26,10.25s-5.34,3.4-9.47,3.4h-8a14.81,14.81,0,0,1-5.22-.87,8.59,8.59,0,0,1-4.19-3.68l-.2-.29-.21.29a9.48,9.48,0,0,1-4,3.69,12.24,12.24,0,0,1-4.61.86h-7.09a14.93,14.93,0,0,1-5.22-.87A8.68,8.68,0,0,1,134,88.56l-.2-.29-.2.29a9.59,9.59,0,0,1-4,3.69,12.2,12.2,0,0,1-4.61.86h-1.8c-1,0-2.37,0-3.57,0l-.81,0L118,93a13,13,0,0,1-3-.59,14.22,14.22,0,0,1-3.6-1.76,25.15,25.15,0,0,1-4-3.47l-.27-.29-.13.38a7.36,7.36,0,0,1-3.8,4.54,13.82,13.82,0,0,1-6.12,1.32H68.61l-10.53-.17V81.59L58,70.93h9.14l0,8.15v4h.23l3.3.08h25.1a2.32,2.32,0,0,0,1.91-.63,2.12,2.12,0,0,0,.47-1.3,3.88,3.88,0,0,0-.41-1.82,9.15,9.15,0,0,0-1.33-1.78l-13-12.89V54.07l23.88-8.72,2.41,9L92.49,60.39l-.36.14.26.26L102,70.48c3.07,3.06,5.63,5.52,7.63,7.29a30.37,30.37,0,0,0,5.09,3.78c.27.14.54.29.83.41a9.53,9.53,0,0,0,3.22,1,42.39,42.39,0,0,0,4.38.2H125A4.54,4.54,0,0,0,128.34,82a4.79,4.79,0,0,0,1.06-3.41V70.93h9.2v7.69a4,4,0,0,0,1.48,3.44,6,6,0,0,0,3.72,1.08h6.71A4.55,4.55,0,0,0,153.9,82a4.78,4.78,0,0,0,1-3.41V70.93h9.21v7.69a4,4,0,0,0,1.47,3.44,6,6,0,0,0,3.73,1.08h6.74A4.34,4.34,0,0,0,179.43,82a4.89,4.89,0,0,0,1-3.41V70.93Z"/><path class="cls-1" d="M189.67,79.46c0,4.54-1.1,8-3.26,10.25s-5.34,3.4-9.47,3.4h-8a14.81,14.81,0,0,1-5.22-.87,8.59,8.59,0,0,1-4.19-3.68l-.2-.29-.21.29a9.48,9.48,0,0,1-4,3.69,12.24,12.24,0,0,1-4.61.86h-7.09a14.93,14.93,0,0,1-5.22-.87A8.68,8.68,0,0,1,134,88.56l-.2-.29-.2.29a9.59,9.59,0,0,1-4,3.69,12.2,12.2,0,0,1-4.61.86h-1.8c-1,0-2.37,0-3.57,0l-.81,0L118,93a13,13,0,0,1-3-.59,14.22,14.22,0,0,1-3.6-1.76,25.15,25.15,0,0,1-4-3.47l-.27-.29-.13.38a7.36,7.36,0,0,1-3.8,4.54,13.82,13.82,0,0,1-6.12,1.32H68.61l-10.53-.17V81.59L58,70.93h9.14l0,8.15v4h.23l3.3.08h25.1a2.32,2.32,0,0,0,1.91-.63,2.12,2.12,0,0,0,.47-1.3,3.88,3.88,0,0,0-.41-1.82,9.15,9.15,0,0,0-1.33-1.78l-13-12.89V54.07l23.88-8.72,2.41,9L92.49,60.39l-.36.14.26.26L102,70.48c3.07,3.06,5.63,5.52,7.63,7.29a30.37,30.37,0,0,0,5.09,3.78c.27.14.54.29.83.41a9.53,9.53,0,0,0,3.22,1,42.39,42.39,0,0,0,4.38.2H125A4.54,4.54,0,0,0,128.34,82a4.79,4.79,0,0,0,1.06-3.41V70.93h9.2v7.69a4,4,0,0,0,1.48,3.44,6,6,0,0,0,3.72,1.08h6.71A4.55,4.55,0,0,0,153.9,82a4.78,4.78,0,0,0,1-3.41V70.93h9.21v7.69a4,4,0,0,0,1.47,3.44,6,6,0,0,0,3.73,1.08h6.74A4.34,4.34,0,0,0,179.43,82a4.89,4.89,0,0,0,1-3.41V70.93h9.22Z"/><rect class="cls-1" x="129.38" y="54.39" width="9.21" height="8.76"/><path class="cls-1" d="M119.58,93.3a1.27,1.27,0,0,0,.34,0h3.24C121.87,93.34,120.67,93.33,119.58,93.3Z"/><path class="cls-1" d="M271.14,70.93v8.53c0,4.55-1.09,8-3.25,10.25s-5.35,3.4-9.48,3.4H245.72s1.93,1.56,1.85,5.28a12.46,12.46,0,0,1-.94,4.33,12.25,12.25,0,0,1-3,4.26,16.84,16.84,0,0,1-5.45,3.28,23.57,23.57,0,0,1-8.39,1.31h-8.46c-5.61,0-10-1.74-13.09-5.19s-4.68-8.24-4.68-14.26V78.48h9.14V91.67a16.08,16.08,0,0,0,.47,4.07,7.51,7.51,0,0,0,1.61,3.14,7.35,7.35,0,0,0,3.07,2,13.93,13.93,0,0,0,4.78.71h5.87a36.92,36.92,0,0,0,4.95-.27,11.29,11.29,0,0,0,3.16-.82A3.48,3.48,0,0,0,238.32,99a4.83,4.83,0,0,0,.49-2.28,4.19,4.19,0,0,0-.76-2.46,3.24,3.24,0,0,0-2.83-1.14h-5.6l2.84-9.94,17.91,0h7.2A4.31,4.31,0,0,0,260.91,82a4.91,4.91,0,0,0,1-3.41V70.93Z"/><rect class="cls-1" x="136.51" y="99.95" width="9.21" height="8.76"/><rect class="cls-1" x="146.95" y="99.95" width="9.21" height="8.76"/><rect class="cls-1" x="169.34" y="109.68" width="9.21" height="8.76"/><rect class="cls-1" x="164.12" y="99.95" width="9.21" height="8.76"/><rect class="cls-1" x="174.56" y="99.95" width="9.21" height="8.76"/><rect class="cls-1" x="256.86" y="109.68" width="9.21" height="8.76"/><rect class="cls-1" x="251.64" y="99.95" width="9.21" height="8.76"/><rect class="cls-1" x="262.08" y="99.95" width="9.21" height="8.76"/><rect class="cls-2" x="36.04" y="78.92" width="14.03" height="14.03"/></svg>